# xmcd
#
# Track frame offsets:
# 150
# 16220
# 34853
# 46297
# 65807
# 92339
# 115104
# 122792
# 139202
# 153813
# 190192
# 205313
# 223227
# 235053
# 248217
# 267761
# 280905
# 293031
# 310217
# 327218
#
# Disc length: 4585 seconds
#
#
# Revision: 6
# Processed by: cddbd v1.5.2PL0 Copyright (c) Steve Scherf et al.
# Submitted via: FreeRIP 2.951 
#
DISCID=2411e714
DTITLE=Various Artist - 100 svenska visor 1972-1978
DYEAR=1996
DGENRE=Folk
TTITLE0=Fru Spetz
TTITLE1=Om du nånsin kommer fram till Samarkand
TTITLE2=Tack för juni månad
TTITLE3=Vaggvisa för vakna
TTITLE4=Kivikspolka
TTITLE5=Sven-Bertil Taube - En sång om frihet
TTITLE6=Dans en trappa upp
TTITLE7=Flirtige Knut
TTITLE8=Vårbappo
TTITLE9=Gigi
TTITLE10=Näs Ingars polska
TTITLE11=Höstkänning
TTITLE12=Sång till fars dag
TTITLE13=Ingen kommer undan politiken
TTITLE14=Titanic (Andraklasspassagerarens sista sång)
TTITLE15=Till Christina för trumpet och änglakör
TTITLE16=Kärlekens hundar
TTITLE17=Lejonbruden
TTITLE18=Rulla in en boll och låt den rulla
TTITLE19=Staffan Percy - Drömmens skepp
EXTD=
EXTT0=Rune Andersson
EXTT1=Lena Andersson
EXTT2=Lasse Göransson
EXTT3=Barbro Högberg
EXTT4=Östen Warnerbring
EXTT5=Sven-Bertil Taube
EXTT6=Margareta Kjellberg
EXTT7=Lasse Berghagen
EXTT8=Bernt Staf
EXTT9=Anita Lindblom
EXTT10=Folk och Rackare
EXTT11=Ola Magnell
EXTT12=Finn Zetterholm
EXTT13=Marie Bergman
EXTT14=Mikael Wiehe
EXTT15=John Ulf Anderson
EXTT16=Ulf Lundell
EXTT17=Maritza Horn
EXTT18=Gösta Linderholm
EXTT19=Staffan Percy
PLAYORDER=
